<svg width="170" height="150" viewBox="0 0 170 150" fill="none" xmlns="http://www.w3.org/2000/svg">
<path d="M27.4788 72.2645C10.9449 72.2645 0 65.8815 0 56.0791C0 45.5927 5.5889 37.1581 14.438 33.0547C10.7121 29.4073 8.38335 24.6201 8.38335 19.149C8.38335 8.66265 16.9996 0.227997 27.7116 0.227997C38.4237 0.227997 47.0399 8.66265 47.0399 19.149C47.0399 24.6201 44.7112 29.8633 40.5195 33.2827C49.3686 37.614 55.1904 46.2766 55.1904 56.0791C54.7247 67.0213 45.6427 72.2645 27.4788 72.2645ZM27.4788 6.61097C20.2598 6.61097 14.6709 12.3101 14.6709 19.149C14.6709 24.3921 18.1639 29.1794 23.2871 31.0031C24.6843 31.459 25.3829 32.5988 25.3829 34.1946C25.1501 35.7903 24.2186 36.7022 22.8213 36.9301C12.575 38.7538 6.28752 46.0487 6.28752 56.0791C6.28752 62.0061 14.9037 66.1095 27.2459 66.1095C48.2043 66.1095 48.2043 58.5867 48.2043 56.0791C48.2043 46.9605 41.451 38.9818 31.6704 36.9301C30.2732 36.7022 29.3417 35.3344 29.1089 34.1946C29.1089 32.5988 30.0403 31.459 31.2047 31.0031C36.3279 29.4073 39.8209 24.6201 39.8209 19.149C40.2867 12.3101 34.6978 6.61097 27.4788 6.61097Z" fill="black"/>
<path d="M142.517 72.2644C125.983 72.2644 115.038 65.8815 115.038 56.079C115.038 45.5927 120.627 37.1581 129.476 33.0547C125.518 29.4073 123.189 24.6201 123.189 18.921C123.189 8.43465 131.805 0 142.517 0C153.229 0 161.845 8.43465 161.845 18.921C161.845 24.3921 159.517 29.6353 155.325 33.0547C164.174 37.614 169.996 46.2766 169.996 55.8511C170.229 67.0213 160.914 72.2644 142.517 72.2644ZM142.517 6.61094C135.298 6.61094 129.709 12.31 129.709 19.1489C129.709 24.3921 133.202 29.1793 138.325 31.003C139.723 31.459 140.421 32.5988 140.421 34.1945C140.188 35.7903 139.257 36.7021 137.86 36.9301C127.613 38.7538 121.326 46.0486 121.326 56.079C121.326 62.0061 129.942 66.1094 142.284 66.1094C163.243 66.1094 163.243 58.5866 163.243 56.079C163.243 46.9605 156.256 38.9818 146.709 36.9301C145.312 36.7021 144.38 35.3343 144.38 34.1945C144.38 32.5988 145.312 31.459 146.476 31.003C151.599 29.4073 155.092 24.6201 155.092 19.1489C155.558 12.31 149.736 6.61094 142.517 6.61094Z" fill="black"/>
<path d="M84.9979 150C68.4641 150 57.5192 143.389 57.5192 133.815C57.5192 123.328 63.1081 114.894 71.9572 110.79C67.9984 107.143 65.6696 102.356 65.6696 96.6565C65.6696 86.1702 74.2859 77.7356 84.9979 77.7356C95.71 77.7356 104.326 86.1702 104.326 96.6565C104.326 102.128 101.998 107.371 97.8058 110.79C106.888 115.122 112.477 123.784 112.477 133.815C112.477 144.757 102.929 150 84.9979 150ZM84.9979 84.3465C77.7789 84.3465 72.19 90.0456 72.19 96.8845C72.19 102.128 75.6831 106.915 80.8063 108.739C82.2035 109.195 82.9021 110.334 82.9021 111.93C82.6692 113.526 81.7377 114.438 80.3405 114.666C70.0942 116.489 63.8067 123.784 63.8067 133.815C63.8067 139.742 72.4229 143.845 84.7651 143.845C105.723 143.845 105.723 136.322 105.723 133.815C105.956 124.696 99.2031 116.717 89.1896 114.666C87.7924 114.438 86.8609 113.07 86.628 111.93C86.628 110.334 87.5595 109.195 88.7239 108.739C93.847 107.143 97.3401 102.356 97.3401 96.8845C97.8058 89.8176 91.9841 84.3465 84.9979 84.3465Z" fill="black"/>
<path d="M53.5604 120.821C52.8618 120.821 52.1632 120.593 51.9303 120.365C37.4923 111.018 28.1775 95.9726 26.0816 79.1033C25.8488 77.5076 27.246 75.9118 28.8761 75.6839C30.5062 75.4559 32.1363 76.8237 32.3691 78.4194C34.2321 93.465 42.8483 106.915 55.4234 115.35C57.0535 116.261 57.2863 118.313 56.3548 119.681C55.4234 120.365 54.4919 120.821 53.5604 120.821Z" fill="black"/>
<path d="M115.97 121.277C114.805 121.277 114.107 120.821 113.408 119.681C112.477 118.085 112.942 116.261 114.34 115.35C126.915 107.371 135.531 94.8328 138.093 80.4711C138.325 78.8754 139.955 77.7356 141.818 77.9635C143.449 78.1915 144.613 79.7872 144.38 81.6109C141.586 97.7964 131.805 111.93 117.6 121.049C117.134 121.049 116.436 121.277 115.97 121.277Z" fill="black"/>
<path d="M118.298 29.1793C117.6 29.1793 116.901 28.9514 116.668 28.4954C107.353 22.1125 96.4085 18.693 85.4636 18.693C74.7515 18.693 64.2723 21.8845 54.9575 27.8115C53.3274 28.9514 51.4644 28.4954 50.533 26.8997C49.3686 25.304 49.8343 23.4802 51.4644 22.5684C61.7108 15.7295 73.3543 12.31 85.4636 12.31C98.0386 12.31 110.148 16.1854 120.394 23.2523C122.024 24.3921 122.024 26.2158 121.326 27.5836C120.161 28.7234 119.23 29.1793 118.298 29.1793Z" fill="black"/>
</svg>
