<svg width="170" height="150" viewBox="0 0 170 150" fill="none" xmlns="http://www.w3.org/2000/svg">
<path d="M8.28123 145.154H4.96874V124.128C4.98406 112.948 12.2339 102.921 23.026 99.152C27.5529 96.5539 32.7125 95.1857 37.9653 95.1906H105.201L107.209 92.7677H32.1684C14.5336 92.7875 0.0273281 106.93 0 124.128V147.577C0 148.906 1.12128 150 2.48437 150H151.7C153.063 150 154.184 148.906 154.184 147.577H8.28123V145.154Z" fill="black"/>
<path d="M103.188 97.6135L105.201 95.1906H37.9653C32.7117 95.1882 27.552 96.5591 23.0259 99.1601C25.9592 98.134 29.0522 97.6106 32.1684 97.6135H103.188Z" fill="black"/>
<path d="M154.184 124.128C154.185 120.212 153.43 116.331 151.961 112.688L148.11 116.661C148.843 119.085 149.216 121.6 149.215 124.128V145.154H8.28122V147.577H154.184V124.128Z" fill="black"/>
<path d="M93.8801 85.8343H58.1383C47.1972 85.8209 38.1984 77.0449 38.1847 66.3746V19.4557C38.1984 8.78614 47.198 0.0109029 58.1383 0H93.8801C104.82 0.0109029 113.82 8.78614 113.834 19.4557V66.3746C113.82 77.0449 104.821 85.8209 93.8801 85.8343ZM58.1383 4.84574C49.9221 4.8522 43.1626 11.4428 43.1535 19.4557V66.3746C43.1626 74.3882 49.9213 80.9796 58.1383 80.9885H93.8801C102.096 80.9776 108.854 74.3874 108.865 66.3746V19.4557C108.854 11.4436 102.096 4.85463 93.8801 4.84574H58.1383Z" fill="black"/>
<path d="M108.567 37.074C100.335 37.074 92.257 30.302 88.6671 26.8414C75.9678 38.4227 42.0479 36.6944 40.5283 36.6096C39.2182 36.5373 38.1806 35.4664 38.1806 34.1867C38.1806 32.8553 39.3039 31.7598 40.6691 31.7598C40.7159 31.7598 40.7631 31.7614 40.8099 31.7638C50.9916 32.3251 79.0816 31.6306 86.6423 21.822C87.1114 21.2143 87.8472 20.8565 88.6273 20.8565C89.3457 20.8565 90.0297 21.1601 90.5014 21.6887C93.6192 25.1736 103.337 33.8031 110.728 31.9617C110.931 31.9108 111.14 31.8846 111.349 31.8846C112.712 31.8846 113.834 32.9785 113.834 34.3079C113.834 35.4091 113.064 36.3786 111.97 36.654C110.859 36.9334 109.715 37.0748 108.567 37.074Z" fill="black"/>
<path d="M69.3801 58.0076H59.1114C56.0821 58.0056 53.5899 55.575 53.5878 52.6207V49.3176C53.5924 46.3649 56.0838 43.9368 59.1114 43.9348H69.3801C72.4061 43.9392 74.895 46.3665 74.8996 49.3176V52.6207C74.8975 55.5734 72.4077 58.0032 69.3801 58.0076ZM59.1114 48.7805C58.8096 48.7825 58.5611 49.0232 58.5566 49.3176V52.6207C58.5586 52.9167 58.8079 53.1598 59.1114 53.1619H69.3801C69.682 53.1574 69.9288 52.9151 69.9308 52.6207V49.3176C69.9263 49.0244 69.6807 48.7849 69.3801 48.7805H59.1114Z" fill="black"/>
<path d="M93.7642 58.0076H83.4913C80.462 58.0056 77.9698 55.575 77.9677 52.6207V49.3176C77.9723 46.3665 80.4612 43.9392 83.4872 43.9348H93.76C96.786 43.9392 99.2749 46.3665 99.2795 49.3176V52.6207C99.2774 55.5718 96.7901 58.0011 93.7642 58.0076ZM83.4913 48.7805C83.1895 48.7825 82.941 49.0232 82.9365 49.3176V52.6207C82.9385 52.9151 83.1853 53.1574 83.4872 53.1619H93.76C94.0619 53.1574 94.3087 52.9151 94.3107 52.6207V49.3176C94.3062 49.0244 94.0607 48.7849 93.76 48.7805H83.4913Z" fill="black"/>
<path d="M118.206 62.6191H114.587C111.45 62.6147 108.87 60.0982 108.865 57.0385V46.075C108.87 43.0153 111.45 40.4987 114.587 40.4943H118.206C121.344 40.4987 123.924 43.0153 123.929 46.075V57.0385C123.924 60.0982 121.344 62.6147 118.206 62.6191ZM114.587 45.34C114.176 45.3445 113.838 45.6736 113.834 46.075V57.0385C113.838 57.4399 114.176 57.769 114.587 57.7734H118.206C118.619 57.769 118.957 57.4407 118.964 57.0385V46.075C118.957 45.6728 118.619 45.3445 118.206 45.34H114.587Z" fill="black"/>
<path d="M37.427 62.6191H33.8123C30.6733 62.6171 28.0903 60.0998 28.0858 57.0385V46.075C28.0903 43.0137 30.6733 40.4963 33.8123 40.4943H37.427C40.566 40.4963 43.1489 43.0137 43.1535 46.075V57.0385C43.1489 60.0998 40.566 62.6171 37.427 62.6191ZM33.8123 45.34C33.3998 45.3445 33.0611 45.6728 33.0545 46.075V57.0385C33.0611 57.4407 33.3998 57.769 33.8123 57.7734H37.427C37.8394 57.769 38.1781 57.4407 38.1847 57.0385V46.075C38.1781 45.6728 37.8394 45.3445 37.427 45.34H33.8123Z" fill="black"/>
<path d="M54.5402 51.5587L40.6691 42.9171Z" fill="black"/>
<path d="M54.536 54.0018C54.0631 54.0002 53.6006 53.8673 53.2027 53.6182L39.3317 44.9766C38.5942 44.5368 38.1433 43.7522 38.1433 42.9095C38.1433 41.5805 39.265 40.4866 40.6277 40.4866C41.1183 40.4866 41.5982 40.6283 42.0065 40.894L55.8776 49.5356C56.5926 49.9802 57.027 50.7519 57.027 51.5789C57.027 52.9083 55.9053 54.0018 54.5426 54.0018C54.5401 54.0018 54.5381 54.0018 54.536 54.0018Z" fill="black"/>
<path d="M97.644 52.1039L111.515 43.4663Z" fill="black"/>
<path d="M97.6439 54.5308C97.6431 54.5308 97.6423 54.5308 97.6415 54.5308C96.2788 54.5308 95.1571 53.4373 95.1571 52.1079C95.1571 51.2809 95.5915 50.5092 96.3065 50.0646L110.178 41.4231C110.577 41.1751 111.041 41.0431 111.515 41.0431C112.881 41.0431 114.006 42.1398 114.006 43.4724C114.006 44.3018 113.57 45.0763 112.852 45.5217L98.9814 54.1633C98.5806 54.4072 98.1164 54.5348 97.6439 54.5308Z" fill="black"/>
<path d="M48.6812 118.983C48.309 118.982 47.9413 118.9 47.6046 118.745C46.7451 118.342 46.1964 117.49 46.1968 116.56V95.1906C46.1968 93.8612 47.3181 92.7677 48.6812 92.7677H76.0093C77.3645 92.7786 78.4733 93.8689 78.4733 95.1906C78.4733 95.9203 78.1351 96.6124 77.5537 97.0724L50.2257 118.45C49.7876 118.793 49.2431 118.981 48.6812 118.983ZM51.1656 97.6054V111.509L68.9412 97.6135L51.1656 97.6054Z" fill="black"/>
<path d="M75.8975 119.791C74.5344 119.791 73.4131 118.697 73.4131 117.368V96.826C73.4131 95.4967 74.5344 94.4032 75.8975 94.4032C77.2605 94.4032 78.3818 95.4967 78.3818 96.826V117.368C78.3818 118.697 77.2605 119.791 75.8975 119.791Z" fill="black"/>
<path d="M121.659 148.429C121.064 148.429 120.487 148.22 120.036 147.84L88.8907 121.592C87.145 120.169 86.1343 118.06 86.1343 115.842C86.1343 111.73 89.6037 108.347 93.8192 108.347C95.7078 108.347 97.5317 109.026 98.9399 110.253L130.09 136.501C130.636 136.96 130.949 137.63 130.949 138.334C130.949 139.663 129.828 140.757 128.465 140.757C127.868 140.757 127.291 140.548 126.839 140.167L95.6937 113.919C94.5654 112.969 92.8359 113.091 91.8595 114.19C90.8889 115.291 91.0156 116.975 92.1411 117.925L123.287 144.173C123.832 144.633 124.147 145.303 124.147 146.006C124.147 147.336 123.025 148.429 121.662 148.429C121.662 148.429 121.66 148.429 121.659 148.429Z" fill="black"/>
<path d="M116.326 143.935C116.326 143.935 116.325 143.935 116.324 143.935C114.961 143.935 113.84 142.841 113.84 141.512C113.84 140.929 114.055 140.365 114.447 139.925L121.25 132.252C121.721 131.72 122.408 131.414 123.129 131.414C124.493 131.414 125.614 132.508 125.614 133.837C125.614 134.419 125.399 134.982 125.009 135.422L118.206 143.095C117.735 143.627 117.048 143.934 116.326 143.935Z" fill="black"/>
<path d="M106.401 112.312C105.039 112.312 103.918 111.218 103.918 109.889C103.918 109.308 104.132 108.746 104.522 108.306L133.348 75.8076C133.82 75.2476 134.525 74.9225 135.268 74.9225C136.631 74.9225 137.753 76.016 137.753 77.3454C137.753 77.947 137.523 78.5277 137.108 78.9735L108.281 111.497C107.805 112.02 107.119 112.318 106.401 112.312Z" fill="black"/>
<path d="M153.302 100.339C152.706 100.339 152.13 100.13 151.679 99.7496L137.746 88.0027C137.2 87.5428 136.886 86.8729 136.886 86.1694C136.886 84.8401 138.008 83.7462 139.371 83.7462C139.968 83.7462 140.545 83.9557 140.996 84.3361L154.929 96.0871C155.472 96.547 155.785 97.2149 155.785 97.9163C155.785 99.2449 154.664 100.338 153.302 100.339Z" fill="black"/>
<path d="M140.764 103.178C140.168 103.178 139.592 102.968 139.141 102.588L130.943 95.6792C130.397 95.2193 130.083 94.5494 130.083 93.8459C130.083 92.5166 131.205 91.4226 132.568 91.4226C133.165 91.4226 133.742 91.6322 134.193 92.0126L142.387 98.9218C142.933 99.3818 143.247 100.052 143.247 100.755C143.247 102.084 142.127 103.177 140.764 103.178Z" fill="black"/>
<path d="M139.7 115.688C139.103 115.689 138.525 115.479 138.073 115.099L124.14 103.352C123.594 102.892 123.28 102.222 123.28 101.518C123.28 100.189 124.402 99.0951 125.765 99.0951C126.362 99.0951 126.939 99.3046 127.39 99.685L141.319 111.432C141.865 111.892 142.179 112.562 142.179 113.265C142.179 114.594 141.058 115.687 139.696 115.688H139.7Z" fill="black"/>
<path d="M127.158 118.527C126.562 118.526 125.986 118.317 125.535 117.937L117.337 111.024C116.823 110.565 116.53 109.916 116.53 109.237C116.53 107.908 117.651 106.814 119.014 106.814C119.588 106.814 120.143 107.008 120.587 107.362L128.786 114.271C129.331 114.731 129.646 115.401 129.646 116.104C129.646 117.433 128.524 118.527 127.161 118.527C127.16 118.527 127.159 118.527 127.158 118.527Z" fill="black"/>
<path d="M79.6613 53.392H73.2267C71.8636 53.392 70.7424 52.2985 70.7424 50.9692C70.7424 49.6398 71.8636 48.5463 73.2267 48.5463H79.6613C81.0243 48.5463 82.1456 49.6398 82.1456 50.9692C82.1456 52.2985 81.0243 53.392 79.6613 53.392Z" fill="black"/>
<path d="M79.6613 73.1909H74.6014C73.2383 73.1909 72.1171 72.0974 72.1171 70.7681C72.1171 69.4387 73.2383 68.3452 74.6014 68.3452H79.6613C81.0244 68.3452 82.1456 69.4387 82.1456 70.7681C82.1456 72.0974 81.0244 73.1909 79.6613 73.1909Z" fill="black"/>
<path d="M103.226 92.7677H75.8975C75.8966 92.7677 75.8954 92.7677 75.8954 92.7677C74.5323 92.7677 73.411 93.8612 73.411 95.1906C73.411 95.9251 73.753 96.6209 74.3406 97.0804L91.5448 110.535L93.2011 108.738L94.8573 106.942L82.9696 97.6135H100.741V100.678L103.226 98.0132L105.71 95.3521V95.1906C105.71 93.8612 104.589 92.7677 103.226 92.7677Z" fill="black"/>
<path d="M129.121 140.014C127.758 140.013 126.637 138.92 126.637 137.591C126.637 137.01 126.852 136.448 127.241 136.008L164.022 94.5122L132.698 68.1069L91.2426 114.876C90.7738 115.358 90.1217 115.632 89.4406 115.632C88.0775 115.632 86.9562 114.538 86.9562 113.209C86.9562 112.664 87.1446 112.134 87.4912 111.706L130.554 63.1037C131.444 62.0982 133.025 61.9855 134.057 62.8533L169.14 92.4326C169.638 92.8521 169.945 93.4481 169.993 94.0882C170.043 94.7294 169.826 95.3642 169.393 95.8488L130.988 139.178C130.519 139.706 129.838 140.011 129.121 140.014Z" fill="black"/>
</svg>
