<svg width="113" height="19" viewBox="0 0 113 19" fill="none" xmlns="http://www.w3.org/2000/svg">
<g style="mix-blend-mode:multiply">
<path d="M0.880682 15V3.36364H3.69318V8.28409H3.84659L7.69318 3.36364H11.0057L6.88068 8.55682L11.0795 15H7.71591L4.81818 10.4261L3.69318 11.8466V15H0.880682ZM14.8935 10.0227V15H12.1151V6.27273H14.7571V7.875H14.8537C15.0469 7.34091 15.3764 6.92235 15.8423 6.61932C16.3082 6.3125 16.8632 6.15909 17.5071 6.15909C18.1207 6.15909 18.6529 6.29735 19.1037 6.57386C19.5582 6.84659 19.9105 7.22917 20.1605 7.72159C20.4143 8.21023 20.5393 8.7822 20.5355 9.4375V15H17.7571V9.98295C17.7609 9.49811 17.6378 9.11932 17.3878 8.84659C17.1416 8.57386 16.7988 8.4375 16.3594 8.4375C16.0677 8.4375 15.8101 8.50189 15.5866 8.63068C15.367 8.75568 15.1965 8.93561 15.0753 9.17045C14.9579 9.4053 14.8973 9.68939 14.8935 10.0227ZM26.3295 15.1648C25.4129 15.1648 24.625 14.9773 23.9659 14.6023C23.3106 14.2235 22.8049 13.697 22.4489 13.0227C22.0966 12.3447 21.9205 11.5587 21.9205 10.6648C21.9205 9.76705 22.0966 8.98106 22.4489 8.30682C22.8049 7.62879 23.3106 7.10227 23.9659 6.72727C24.625 6.34848 25.4129 6.15909 26.3295 6.15909C27.2462 6.15909 28.0322 6.34848 28.6875 6.72727C29.3466 7.10227 29.8523 7.62879 30.2045 8.30682C30.5606 8.98106 30.7386 9.76705 30.7386 10.6648C30.7386 11.5587 30.5606 12.3447 30.2045 13.0227C29.8523 13.697 29.3466 14.2235 28.6875 14.6023C28.0322 14.9773 27.2462 15.1648 26.3295 15.1648ZM26.3466 13.0682C26.6799 13.0682 26.9621 12.9659 27.1932 12.7614C27.4242 12.5568 27.6004 12.2727 27.7216 11.9091C27.8466 11.5455 27.9091 11.125 27.9091 10.6477C27.9091 10.1629 27.8466 9.73864 27.7216 9.375C27.6004 9.01136 27.4242 8.72727 27.1932 8.52273C26.9621 8.31818 26.6799 8.21591 26.3466 8.21591C26.0019 8.21591 25.7102 8.31818 25.4716 8.52273C25.2367 8.72727 25.0568 9.01136 24.9318 9.375C24.8106 9.73864 24.75 10.1629 24.75 10.6477C24.75 11.125 24.8106 11.5455 24.9318 11.9091C25.0568 12.2727 25.2367 12.5568 25.4716 12.7614C25.7102 12.9659 26.0019 13.0682 26.3466 13.0682ZM33.6051 15L31.3324 6.27273H34.1222L35.2983 11.8636H35.3722L36.6335 6.27273H39.3551L40.6506 11.8239H40.7244L41.8665 6.27273H44.6562L42.3778 15H39.4062L38.0426 9.91477H37.946L36.5824 15H33.6051ZM48.5497 3.36364V15H45.7713V3.36364H48.5497ZM54.3977 15.1648C53.4848 15.1648 52.697 14.9848 52.0341 14.625C51.375 14.2614 50.8674 13.7443 50.5114 13.0739C50.1591 12.3996 49.983 11.5985 49.983 10.6705C49.983 9.76894 50.161 8.98106 50.517 8.30682C50.8731 7.62879 51.375 7.10227 52.0227 6.72727C52.6705 6.34848 53.4337 6.15909 54.3125 6.15909C54.9337 6.15909 55.5019 6.25568 56.017 6.44886C56.5322 6.64205 56.9773 6.92803 57.3523 7.30682C57.7273 7.68561 58.0189 8.15341 58.2273 8.71023C58.4356 9.26326 58.5398 9.89773 58.5398 10.6136V11.3068H50.9545V9.69318H55.9545C55.9508 9.39773 55.8807 9.13447 55.7443 8.90341C55.608 8.67235 55.4205 8.49242 55.1818 8.36364C54.947 8.23106 54.6761 8.16477 54.3693 8.16477C54.0587 8.16477 53.7803 8.23485 53.5341 8.375C53.2879 8.51136 53.0928 8.69886 52.9489 8.9375C52.8049 9.17235 52.7292 9.43939 52.7216 9.73864V11.3807C52.7216 11.7367 52.7917 12.0492 52.9318 12.3182C53.072 12.5833 53.2708 12.7898 53.5284 12.9375C53.786 13.0852 54.0928 13.1591 54.4489 13.1591C54.6951 13.1591 54.9186 13.125 55.1193 13.0568C55.3201 12.9886 55.4924 12.8883 55.6364 12.7557C55.7803 12.6231 55.8883 12.4602 55.9602 12.267L58.5114 12.3409C58.4053 12.9129 58.1723 13.411 57.8125 13.8352C57.4564 14.2557 56.9886 14.5833 56.4091 14.8182C55.8295 15.0492 55.1591 15.1648 54.3977 15.1648ZM63.1463 15.125C62.5024 15.125 61.9171 14.9583 61.3906 14.625C60.8641 14.2917 60.4437 13.7917 60.1293 13.125C59.8149 12.4583 59.6577 11.6307 59.6577 10.642C59.6577 9.61553 59.8205 8.77083 60.1463 8.10795C60.4721 7.44508 60.8982 6.95455 61.4247 6.63636C61.955 6.31818 62.5251 6.15909 63.1349 6.15909C63.5933 6.15909 63.9853 6.23864 64.3111 6.39773C64.6368 6.55303 64.9058 6.75379 65.1179 7C65.33 7.24621 65.491 7.50189 65.6009 7.76705H65.6577V3.36364H68.4361V15H65.6861V13.5852H65.6009C65.4834 13.8542 65.3168 14.1061 65.1009 14.3409C64.8849 14.5758 64.6141 14.7652 64.2884 14.9091C63.9664 15.053 63.5857 15.125 63.1463 15.125ZM64.1122 12.9602C64.4493 12.9602 64.7372 12.8655 64.9759 12.6761C65.2145 12.483 65.3982 12.2121 65.527 11.8636C65.6558 11.5152 65.7202 11.1061 65.7202 10.6364C65.7202 10.1591 65.6558 9.74811 65.527 9.40341C65.402 9.05871 65.2183 8.79356 64.9759 8.60795C64.7372 8.42235 64.4493 8.32955 64.1122 8.32955C63.7675 8.32955 63.4759 8.42424 63.2372 8.61364C62.9986 8.80303 62.8168 9.07008 62.6918 9.41477C62.5705 9.75947 62.5099 10.1667 62.5099 10.6364C62.5099 11.1061 62.5724 11.5152 62.6974 11.8636C62.8224 12.2121 63.0024 12.483 63.2372 12.6761C63.4759 12.8655 63.7675 12.9602 64.1122 12.9602ZM74.2614 18.4545C73.4318 18.4545 72.7216 18.339 72.1307 18.108C71.5398 17.8769 71.0758 17.5606 70.7386 17.1591C70.4015 16.7576 70.1989 16.303 70.1307 15.7955L72.7614 15.6477C72.8106 15.8258 72.9015 15.9811 73.0341 16.1136C73.1705 16.2462 73.3466 16.3485 73.5625 16.4205C73.7822 16.4924 74.0398 16.5284 74.3352 16.5284C74.8011 16.5284 75.1856 16.4148 75.4886 16.1875C75.7955 15.964 75.9489 15.572 75.9489 15.0114V13.4773H75.8523C75.7424 13.7462 75.5758 13.9867 75.3523 14.1989C75.1288 14.411 74.8504 14.5777 74.517 14.6989C74.1875 14.8201 73.8087 14.8807 73.3807 14.8807C72.7443 14.8807 72.161 14.733 71.6307 14.4375C71.1042 14.1383 70.6818 13.6761 70.3636 13.0511C70.0492 12.4223 69.892 11.6136 69.892 10.625C69.892 9.60606 70.0549 8.76705 70.3807 8.10795C70.7064 7.44508 71.1326 6.95455 71.6591 6.63636C72.1894 6.31818 72.7595 6.15909 73.3693 6.15909C73.8277 6.15909 74.2197 6.23864 74.5455 6.39773C74.875 6.55303 75.1458 6.75379 75.358 7C75.5701 7.24621 75.7311 7.50189 75.8409 7.76705H75.9205V6.27273H78.6875V15.0341C78.6875 15.7727 78.5019 16.3958 78.1307 16.9034C77.7595 17.411 77.2405 17.7955 76.5739 18.0568C75.9072 18.322 75.1364 18.4545 74.2614 18.4545ZM74.3466 12.858C74.6837 12.858 74.9716 12.7689 75.2102 12.5909C75.4489 12.4129 75.6326 12.1572 75.7614 11.8239C75.8902 11.4905 75.9545 11.0909 75.9545 10.625C75.9545 10.1515 75.8902 9.74432 75.7614 9.40341C75.6364 9.05871 75.4527 8.79356 75.2102 8.60795C74.9716 8.42235 74.6837 8.32955 74.3466 8.32955C74.0019 8.32955 73.7102 8.42424 73.4716 8.61364C73.233 8.80303 73.0511 9.07008 72.9261 9.41477C72.8049 9.75568 72.7443 10.1591 72.7443 10.625C72.7443 11.0909 72.8068 11.4905 72.9318 11.8239C73.0568 12.1572 73.2367 12.4129 73.4716 12.5909C73.7102 12.7689 74.0019 12.858 74.3466 12.858ZM84.5384 15.1648C83.6255 15.1648 82.8376 14.9848 82.1747 14.625C81.5156 14.2614 81.008 13.7443 80.652 13.0739C80.2997 12.3996 80.1236 11.5985 80.1236 10.6705C80.1236 9.76894 80.3016 8.98106 80.6577 8.30682C81.0137 7.62879 81.5156 7.10227 82.1634 6.72727C82.8111 6.34848 83.5743 6.15909 84.4531 6.15909C85.0743 6.15909 85.6425 6.25568 86.1577 6.44886C86.6728 6.64205 87.1179 6.92803 87.4929 7.30682C87.8679 7.68561 88.1596 8.15341 88.3679 8.71023C88.5762 9.26326 88.6804 9.89773 88.6804 10.6136V11.3068H81.0952V9.69318H86.0952C86.0914 9.39773 86.0213 9.13447 85.8849 8.90341C85.7486 8.67235 85.5611 8.49242 85.3224 8.36364C85.0876 8.23106 84.8168 8.16477 84.5099 8.16477C84.1993 8.16477 83.9209 8.23485 83.6747 8.375C83.4285 8.51136 83.2334 8.69886 83.0895 8.9375C82.9455 9.17235 82.8698 9.43939 82.8622 9.73864V11.3807C82.8622 11.7367 82.9323 12.0492 83.0724 12.3182C83.2126 12.5833 83.4115 12.7898 83.669 12.9375C83.9266 13.0852 84.2334 13.1591 84.5895 13.1591C84.8357 13.1591 85.0592 13.125 85.2599 13.0568C85.4607 12.9886 85.633 12.8883 85.777 12.7557C85.9209 12.6231 86.0289 12.4602 86.1009 12.267L88.652 12.3409C88.5459 12.9129 88.313 13.411 87.9531 13.8352C87.5971 14.2557 87.1293 14.5833 86.5497 14.8182C85.9702 15.0492 85.2997 15.1648 84.5384 15.1648ZM91.6619 15.1648C91.2528 15.1648 90.9025 15.0208 90.6108 14.733C90.3229 14.4451 90.1809 14.0966 90.1847 13.6875C90.1809 13.286 90.3229 12.9432 90.6108 12.6591C90.9025 12.3712 91.2528 12.2273 91.6619 12.2273C92.0483 12.2273 92.3892 12.3712 92.6847 12.6591C92.9839 12.9432 93.1354 13.286 93.1392 13.6875C93.1354 13.9602 93.0634 14.2083 92.9233 14.4318C92.7869 14.6553 92.607 14.8333 92.3835 14.9659C92.1638 15.0985 91.9233 15.1648 91.6619 15.1648ZM97.4347 15.1477C96.8778 15.1477 96.3835 15.0549 95.9517 14.8693C95.5237 14.6799 95.1847 14.3958 94.9347 14.017C94.6884 13.6345 94.5653 13.1553 94.5653 12.5795C94.5653 12.0947 94.6506 11.6856 94.821 11.3523C94.9915 11.0189 95.2263 10.7481 95.5256 10.5398C95.8248 10.3314 96.1695 10.1742 96.5597 10.0682C96.9498 9.95833 97.3665 9.88447 97.8097 9.84659C98.3059 9.80114 98.7055 9.75379 99.0085 9.70455C99.3116 9.65152 99.5313 9.57765 99.6676 9.48295C99.8078 9.38447 99.8778 9.24621 99.8778 9.06818V9.03977C99.8778 8.74811 99.7775 8.52273 99.5767 8.36364C99.3759 8.20455 99.1051 8.125 98.7642 8.125C98.3968 8.125 98.1013 8.20455 97.8778 8.36364C97.6544 8.52273 97.5123 8.74242 97.4517 9.02273L94.8892 8.93182C94.965 8.40152 95.16 7.92803 95.4744 7.51136C95.7926 7.09091 96.2282 6.76136 96.7812 6.52273C97.3381 6.2803 98.0066 6.15909 98.7869 6.15909C99.3438 6.15909 99.857 6.22538 100.327 6.35795C100.796 6.48674 101.205 6.67614 101.554 6.92614C101.902 7.17235 102.171 7.47538 102.361 7.83523C102.554 8.19508 102.651 8.60606 102.651 9.06818V15H100.037V13.7841H99.9688C99.8134 14.0795 99.6146 14.3295 99.3722 14.5341C99.1335 14.7386 98.8513 14.892 98.5256 14.9943C98.2036 15.0966 97.84 15.1477 97.4347 15.1477ZM98.2926 13.3295C98.5919 13.3295 98.8608 13.2689 99.0994 13.1477C99.3419 13.0265 99.535 12.8598 99.679 12.6477C99.8229 12.4318 99.8949 12.1818 99.8949 11.8977V11.0682C99.8153 11.1098 99.7188 11.1477 99.6051 11.1818C99.4953 11.2159 99.3741 11.2481 99.2415 11.2784C99.1089 11.3087 98.9725 11.3352 98.8324 11.358C98.6922 11.3807 98.5578 11.4015 98.429 11.4205C98.1676 11.4621 97.9441 11.5265 97.7585 11.6136C97.5767 11.7008 97.4366 11.8144 97.3381 11.9545C97.2434 12.0909 97.196 12.2538 97.196 12.4432C97.196 12.7311 97.2983 12.9508 97.5028 13.1023C97.7112 13.2538 97.9744 13.3295 98.2926 13.3295ZM107.128 3.36364V15H104.349V3.36364H107.128ZM111.675 3.36364V15H108.896V3.36364H111.675Z" fill="#0F91B9"/>
</g>
</svg>
