<svg width="170" height="150" viewBox="0 0 170 150" fill="none" xmlns="http://www.w3.org/2000/svg">
<path d="M42.4997 110.592C42.0016 110.592 41.5197 110.359 41.2788 109.951C40.9333 109.374 41.2037 108.669 41.8759 108.376C51.6038 104.135 52.0963 102.282 52.0963 101.954C52.0963 101.307 52.7095 100.782 53.4673 100.782C54.2251 100.782 54.8383 101.307 54.8383 101.954C54.8383 103.538 53.5074 105.937 43.1235 110.464C42.923 110.551 42.7115 110.592 42.4997 110.592Z" fill="black"/>
<path d="M168.628 150H1.371C0.61318 150 0 149.476 0 148.828V134.766C0 124.707 6.09444 120.853 17.3432 117.262C18.8718 116.774 20.7384 116.17 22.8083 115.481C23.5127 115.243 24.3078 115.543 24.5838 116.147C24.8597 116.751 24.5087 117.429 23.8047 117.665C21.7187 118.358 19.8418 118.967 18.3018 119.457C7.75986 122.823 2.74234 125.972 2.74234 134.766V147.656H167.257V134.766C167.257 125.972 162.239 122.823 151.698 119.457C150.155 118.964 148.276 118.356 146.19 117.662C145.485 117.427 145.135 116.749 145.411 116.145C145.687 115.54 146.485 115.241 147.186 115.479C149.256 116.168 151.125 116.772 152.66 117.262C163.906 120.853 170 124.707 170 134.766V148.828C169.999 149.476 169.386 150 168.628 150Z" fill="black"/>
<path d="M127.499 110.592C127.288 110.592 127.076 110.551 126.876 110.464C116.491 105.937 115.16 103.538 115.16 101.954C115.16 101.307 115.773 100.782 116.531 100.782C117.289 100.782 117.902 101.307 117.902 101.954C117.902 102.282 118.395 104.135 128.123 108.376C128.795 108.669 129.066 109.374 128.72 109.951C128.479 110.359 127.997 110.592 127.499 110.592Z" fill="black"/>
<path d="M84.9969 110.157C66.4034 110.157 35.6453 85.51 35.6453 57.4248C35.6453 56.7771 36.2585 56.2529 37.0163 56.2529C37.7738 56.2529 38.3873 56.7771 38.3873 57.4248C38.3873 83.4067 67.4639 107.814 84.9973 107.814C102.533 107.814 131.613 83.4064 131.613 57.4248C131.613 56.7771 132.226 56.2529 132.984 56.2529C133.741 56.2529 134.355 56.7771 134.355 57.4248C134.354 85.51 103.59 110.157 84.9969 110.157Z" fill="black"/>
<path d="M53.4673 103.126C52.7095 103.126 52.0963 102.602 52.0963 101.955V92.5799C52.0963 91.9321 52.7095 91.408 53.4673 91.408C54.2251 91.408 54.8383 91.9321 54.8383 92.5799V101.955C54.8383 102.602 54.2251 103.126 53.4673 103.126Z" fill="black"/>
<path d="M116.531 103.126C115.773 103.126 115.16 102.602 115.16 101.955V92.5799C115.16 91.9321 115.773 91.408 116.531 91.408C117.289 91.408 117.902 91.9321 117.902 92.5799V101.955C117.902 102.602 117.289 103.126 116.531 103.126Z" fill="black"/>
<path d="M28.79 58.2899C28.56 58.2899 28.3269 58.2396 28.1182 58.1388C27.687 57.9305 27.4193 57.5414 27.4193 57.1181C27.4139 27.6457 46.2781 15.4307 52.8596 12.0665L47.2797 9.2124C46.637 8.88516 46.4228 8.17793 46.795 7.62158C47.3705 6.76787 67.8491 0 87.6772 0C102.613 0 114.207 3.70312 122.138 11.0065C131.741 19.8504 135.773 33.919 134.127 52.824C134.081 53.33 133.661 53.7557 133.082 53.8746C132.507 53.9936 131.902 53.7832 131.591 53.3528L118.483 35.1961C77.5287 33.4614 29.9602 57.8801 29.5022 58.118C29.2829 58.2328 29.0364 58.2899 28.79 58.2899ZM51.0952 8.43164L56.3355 11.1117C56.7773 11.3382 57.0316 11.7571 56.9997 12.1942C56.9648 12.6337 56.6463 13.0204 56.1751 13.1944C56.1082 13.2173 49.5881 15.68 43.1615 22.2899C37.4609 28.1493 30.7104 38.531 30.1936 55.067C40.0367 50.2998 82.3677 31.0169 119.354 32.8913C119.801 32.9118 120.205 33.1201 120.441 33.4453L131.642 48.9606C132.435 32.5937 128.568 20.3742 120.128 12.6018C112.738 5.79521 101.818 2.34375 87.6772 2.34375C72.1441 2.34375 56.9781 6.58008 51.0952 8.43164Z" fill="black"/>
<path d="M84.9969 126.563C54.7931 126.563 45.8069 107.875 45.7318 107.685C45.4802 107.074 45.8576 106.409 46.5726 106.193C47.2903 105.98 48.0721 106.303 48.3182 106.914C48.3905 107.081 56.6271 124.219 84.9966 124.219C112.914 124.219 121.614 107.065 121.691 106.891C121.967 106.294 122.759 105.987 123.464 106.221C124.165 106.452 124.521 107.116 124.259 107.717C124.176 107.905 114.678 126.563 84.9969 126.563Z" fill="black"/>
<path d="M39.7577 147.876C39.0002 147.876 38.3867 147.352 38.3867 146.704V106.642C38.3867 105.994 38.9998 105.47 39.7577 105.47C40.5155 105.47 41.1287 105.994 41.1287 106.642V146.704C41.1287 147.352 40.5155 147.876 39.7577 147.876Z" fill="black"/>
<path d="M26.0483 112.501C25.5047 112.501 24.9906 112.222 24.7764 111.764C24.4953 111.162 24.8353 110.48 25.5397 110.24L39.2494 105.553C39.9482 105.308 40.7489 105.605 41.0299 106.207C41.311 106.806 40.971 107.488 40.2666 107.729L26.557 112.416C26.3911 112.474 26.217 112.501 26.0483 112.501Z" fill="black"/>
<path d="M26.0483 147.656C25.2905 147.656 24.6773 147.132 24.6773 146.484V111.329C24.6773 110.682 25.2905 110.157 26.0483 110.157C26.8058 110.157 27.4193 110.682 27.4193 111.329V146.484C27.4193 147.132 26.8062 147.656 26.0483 147.656Z" fill="black"/>
<path d="M130.241 147.876C129.483 147.876 128.87 147.352 128.87 146.704V106.642C128.87 105.994 129.483 105.47 130.241 105.47C130.999 105.47 131.612 105.994 131.612 106.642V146.704C131.612 147.352 130.999 147.876 130.241 147.876Z" fill="black"/>
<path d="M143.951 112.501C143.782 112.501 143.608 112.474 143.442 112.416L129.733 107.729C129.028 107.489 128.688 106.807 128.969 106.207C129.25 105.605 130.048 105.31 130.75 105.553L144.459 110.24C145.164 110.48 145.504 111.162 145.223 111.764C145.008 112.222 144.494 112.501 143.951 112.501Z" fill="black"/>
<path d="M143.951 147.656C143.193 147.656 142.58 147.132 142.58 146.484V111.329C142.58 110.682 143.193 110.157 143.951 110.157C144.708 110.157 145.322 110.682 145.322 111.329V146.484C145.322 147.132 144.708 147.656 143.951 147.656Z" fill="black"/>
<path d="M47.9837 100.783H31.532C30.7742 100.783 30.161 100.259 30.161 99.6108C30.161 98.9634 30.7742 98.4393 31.532 98.4393H47.9837C48.7411 98.4393 49.3547 98.9634 49.3547 99.6108C49.3547 100.259 48.7415 100.783 47.9837 100.783Z" fill="black"/>
<path d="M20.5643 114.552C19.8065 114.552 19.1933 114.028 19.1933 113.38V108.986C19.1933 108.338 19.8065 107.814 20.5643 107.814C21.3222 107.814 21.9353 108.338 21.9353 108.986V113.38C21.9353 114.028 21.3222 114.552 20.5643 114.552Z" fill="black"/>
<path d="M20.5643 110.157C19.8065 110.157 19.1933 109.633 19.1933 108.986C19.1933 103.17 24.7281 98.4393 31.532 98.4393C32.2898 98.4393 32.903 98.9634 32.903 99.6108C32.903 100.259 32.2898 100.783 31.532 100.783C26.241 100.783 21.9353 104.463 21.9353 108.986C21.9353 109.633 21.3222 110.157 20.5643 110.157Z" fill="black"/>
<path d="M138.467 100.783H122.015C121.257 100.783 120.644 100.259 120.644 99.6108C120.644 98.9634 121.257 98.4393 122.015 98.4393H138.467C139.224 98.4393 139.838 98.9634 139.838 99.6108C139.838 100.259 139.224 100.783 138.467 100.783Z" fill="black"/>
<path d="M149.435 114.552C148.677 114.552 148.064 114.028 148.064 113.38V108.986C148.064 108.338 148.677 107.814 149.435 107.814C150.192 107.814 150.806 108.338 150.806 108.986V113.38C150.806 114.028 150.192 114.552 149.435 114.552Z" fill="black"/>
<path d="M149.435 110.157C148.677 110.157 148.064 109.633 148.064 108.986C148.064 104.463 143.758 100.783 138.467 100.783C137.709 100.783 137.096 100.259 137.096 99.6108C137.096 98.9634 137.709 98.4393 138.467 98.4393C145.271 98.4393 150.806 103.17 150.806 108.986C150.806 109.633 150.192 110.157 149.435 110.157Z" fill="black"/>
</svg>
